<?xml version="1.0" encoding="utf-8"?>
<!-- Generator: Adobe Illustrator 27.5.0, SVG Export Plug-In . SVG Version: 6.00 Build 0)  -->
<svg version="1.1" id="Layer_1" xmlns="http://www.w3.org/2000/svg" xmlns:xlink="http://www.w3.org/1999/xlink" x="0px" y="0px"
	 viewBox="0 0 328 92" style="enable-background:new 0 0 328 92;" xml:space="preserve">
<style type="text/css">
	.st0{fill:none;stroke:#29ABE2;stroke-width:1.8;stroke-miterlimit:10;}
	.st1{fill:none;stroke:#29ABE2;stroke-width:1.5;stroke-miterlimit:10;}
	.st2{fill:none;stroke:#29ABE2;stroke-width:2;stroke-miterlimit:10;}
	.st3{fill:none;stroke:#29ABE2;stroke-miterlimit:10;}
	.st4{fill:none;stroke:#29ABE2;stroke-width:0.5;stroke-miterlimit:10;}
	.st5{fill:none;}
	.st6{fill:#0060B6;}
	.st7{font-family:'CocktailShaker';}
	.st8{font-size:36px;}
</style>
<path class="st0" d="M35.81,39.44c0,1.43,0.12,2.83,0.36,4.19c-2.79,2.38-6.41,3.81-10.36,3.81c-8.84,0-16-7.17-16-16
	c0-8.84,7.16-16,16-16c6.53,0,12.15,3.91,14.63,9.52C37.52,29.05,35.81,34.05,35.81,39.44z"/>
<path class="st0" d="M34.58,44.59C30.04,47.28,27,52.25,27,57.94c0,8.56,6.9,15.5,15.41,15.5c7.09,0,13.07-4.83,14.85-11.41"/>
<circle class="st1" cx="41.15" cy="12.06" r="4.5"/>
<circle class="st2" cx="76.31" cy="73.94" r="4"/>
<ellipse class="st3" cx="19.26" cy="54.1" rx="3.05" ry="2.83"/>
<ellipse transform="matrix(0.9328 -0.3603 0.3603 0.9328 -9.6472 100.7426)" class="st1" cx="265.39" cy="76.25" rx="6.74" ry="6.69"/>
<circle class="st2" cx="124" cy="28" r="4"/>
<path class="st3" d="M289.08,18.67c-1.05,0.77-1.97,1.71-2.73,2.77c-1.43,2.01-2.27,4.47-2.27,7.12c0,0.49,0.03,0.97,0.09,1.44
	c-0.94,0.36-1.96,0.56-3.02,0.56c-4.69,0-8.5-3.81-8.5-8.5s3.81-8.5,8.5-8.5C282.82,13.56,287.47,14.33,289.08,18.67z"/>
<path class="st4" d="M276.17,22.79c-0.18-0.38-0.51-1.25-0.33-2.35c0.32-1.93,1.97-2.9,2.2-3.03"/>
<circle class="st1" cx="132.15" cy="74.06" r="6.5"/>
<path class="st4" d="M134.06,70.62c0.3,0.1,0.97,0.35,1.5,1.02c0.93,1.17,0.63,2.61,0.58,2.8"/>
<circle class="st1" cx="207.14" cy="14.04" r="6.36"/>
<path class="st4" d="M203.44,15.11c-0.15-0.28-0.43-0.92-0.34-1.74c0.16-1.45,1.36-2.24,1.53-2.35"/>
<path class="st4" d="M267.65,71.56c0.44,0.26,1.4,0.91,1.98,2.04c1.02,1.98,0,3.76-0.15,4"/>
<ellipse transform="matrix(0.5389 -0.8424 0.8424 0.5389 31.8938 99.7671)" class="st1" cx="107.08" cy="20.75" rx="6.69" ry="6.74"/>
<path class="st4" d="M102.96,20.7c-0.05-0.52-0.1-1.67,0.47-2.8c0.99-2,3.03-2.22,3.31-2.25"/>
<circle class="st1" cx="189.15" cy="66.06" r="4.5"/>
<path class="st3" d="M65.15,21.06c1.25,0.15,6.88,0.99,11,6c4.86,5.92,3.68,12.89,3.5,13.89"/>
<path class="st3" d="M15.06,29c-0.06-0.45-0.54-4.26,2.58-7.08c2.36-2.14,5.27-2.33,6.01-2.36"/>
<path class="st0" d="M84,37.72c0,12.54-10.27,22.78-23.14,23.26C60.54,60.99,60.22,61,59.91,61c-9.45,0-17.62-5.25-21.56-12.9
	c-1.05-2.01-1.79-4.19-2.19-6.48c-0.23-1.27-0.35-2.57-0.35-3.9c0-5.02,1.65-9.68,4.46-13.48c4.36-5.93,11.53-9.8,19.63-9.8
	C73.22,14.44,84,24.86,84,37.72z"/>
<path class="st4" d="M298.99,19.04c0.62,0.08,3.38,0.49,5.41,2.95c2.39,2.91,1.81,6.34,1.72,6.82"/>
<path class="st3" d="M289.08,18.67c2.04-1.51,4.56-2.4,7.28-2.4c6.79,0,12.29,5.5,12.29,12.29c0,6.62-5.24,12.02-11.8,12.28
	c-0.16,0-0.32,0.01-0.49,0.01c-4.81,0-8.98-2.78-10.99-6.81c-0.53-1.06-0.91-2.21-1.11-3.42c-0.04-0.2-0.07-0.41-0.09-0.62"/>
<rect x="86.41" y="35.56" class="st5" width="267.25" height="31.38"/>
<text transform="matrix(1 0 0 1 86.406 58.5635)" class="st6 st7 st8">Bubbles Cleaning</text>
</svg>
